<svg width="36" height="30" viewBox="0 0 36 30" fill="none" xmlns="http://www.w3.org/2000/svg">
<g clip-path="url(#clip0_0_278)">
<path d="M34.7834 30.2634H1.21645C0.598703 30.2634 0.0976562 29.7591 0.0976562 29.1383C0.0976562 28.5171 0.599112 28.0132 1.21645 28.0132H34.7834C35.4011 28.0132 35.9021 28.5175 35.9021 29.1383C35.9021 29.7591 35.4011 30.2634 34.7834 30.2634Z" fill="#333333"/>
<path d="M32.6853 30.1227H26.1117C25.494 30.1227 24.9929 29.6184 24.9929 28.9976V7.18984C24.9929 6.88649 25.1151 6.59568 25.3309 6.38417L31.3483 0.483509C31.5575 0.278652 31.8377 0.164062 32.1292 0.164062H32.6849C33.3027 0.164062 33.8037 0.668343 33.8037 1.28916V28.9972C33.8041 29.6184 33.303 30.1223 32.6853 30.1223L32.6853 30.1227ZM27.2305 27.8725H31.566L31.5664 3.41349L27.2309 7.66513L27.2305 27.8725Z" fill="#333333"/>
<path d="M20.6573 30.1227H14.0836C13.4659 30.1227 12.9648 29.6184 12.9648 28.9976V15.7434C12.9648 15.44 13.087 15.1492 13.3028 14.9377L19.8674 8.50096C20.0766 8.29611 20.3568 8.18152 20.6483 8.18152C21.266 8.18152 21.7761 8.6858 21.7761 9.30662V28.9976C21.7761 29.6188 21.2746 30.1227 20.6573 30.1227ZM15.2024 27.8725H19.538V11.967L15.2024 16.2187V27.8725Z" fill="#333333"/>
<path d="M8.90897 29.8414H2.33535C1.7176 29.8414 1.21655 29.3371 1.21655 28.7163V23.2367C1.21655 22.9333 1.3387 22.6425 1.5545 22.431L7.58405 16.5182C7.79323 16.3133 8.07341 16.1987 8.36492 16.1987H8.90853C9.52628 16.1987 10.0273 16.703 10.0273 17.3238L10.0277 28.7155C10.0277 29.3367 9.52665 29.841 8.90892 29.841L8.90897 29.8414ZM3.45415 27.5908H7.78967L7.79006 19.4591L3.45414 23.7108L3.45415 27.5908Z" fill="#333333"/>
</g>
<defs>
<clipPath id="clip0_0_278">
<rect width="36" height="30" fill="white" transform="translate(0 0.000488281)"/>
</clipPath>
</defs>
</svg>
